<svg width="12" height="20" viewBox="0 0 12 20" fill="none" xmlns="http://www.w3.org/2000/svg">
<path fill-rule="evenodd" clip-rule="evenodd" d="M11.031 0.468876C11.1008 0.538544 11.1563 0.621308 11.1941 0.712426C11.2319 0.803543 11.2513 0.901225 11.2513 0.999876C11.2513 1.09853 11.2319 1.19621 11.1941 1.28733C11.1563 1.37844 11.1008 1.46121 11.031 1.53088L2.5605 9.99988L11.031 18.4689C11.1718 18.6097 11.2509 18.8007 11.2509 18.9999C11.2509 19.199 11.1718 19.39 11.031 19.5309C10.8902 19.6717 10.6992 19.7508 10.5 19.7508C10.3008 19.7508 10.1098 19.6717 9.969 19.5309L0.968998 10.5309C0.899153 10.4612 0.843738 10.3784 0.805928 10.2873C0.768119 10.1962 0.748657 10.0985 0.748657 9.99988C0.748657 9.90122 0.768119 9.80354 0.805928 9.71243C0.843738 9.62131 0.899153 9.53854 0.968998 9.46888L9.969 0.468876C10.0387 0.399031 10.1214 0.343617 10.2125 0.305807C10.3037 0.267997 10.4013 0.248535 10.5 0.248535C10.5986 0.248535 10.6963 0.267997 10.7874 0.305807C10.8786 0.343617 10.9613 0.399031 11.031 0.468876Z" fill="white"/>
</svg>
