<svg width="36" height="21" viewBox="0 0 36 21" fill="none" xmlns="http://www.w3.org/2000/svg">
<path fill-rule="evenodd" clip-rule="evenodd" d="M6.75 18C7.94347 18 9.08807 17.5259 9.93198 16.682C10.7759 15.8381 11.25 14.6935 11.25 13.5C11.25 12.3065 10.7759 11.1619 9.93198 10.318C9.08807 9.47411 7.94347 9 6.75 9C5.55653 9 4.41193 9.47411 3.56802 10.318C2.72411 11.1619 2.25 12.3065 2.25 13.5C2.25 14.6935 2.72411 15.8381 3.56802 16.682C4.41193 17.5259 5.55653 18 6.75 18ZM6.75 20.25C8.54021 20.25 10.2571 19.5388 11.523 18.273C12.7888 17.0071 13.5 15.2902 13.5 13.5C13.5 11.7098 12.7888 9.9929 11.523 8.72703C10.2571 7.46116 8.54021 6.75 6.75 6.75C4.95979 6.75 3.2429 7.46116 1.97703 8.72703C0.711159 9.9929 0 11.7098 0 13.5C0 15.2902 0.711159 17.0071 1.97703 18.273C3.2429 19.5388 4.95979 20.25 6.75 20.25ZM29.25 18C30.4435 18 31.5881 17.5259 32.432 16.682C33.2759 15.8381 33.75 14.6935 33.75 13.5C33.75 12.3065 33.2759 11.1619 32.432 10.318C31.5881 9.47411 30.4435 9 29.25 9C28.0565 9 26.9119 9.47411 26.068 10.318C25.2241 11.1619 24.75 12.3065 24.75 13.5C24.75 14.6935 25.2241 15.8381 26.068 16.682C26.9119 17.5259 28.0565 18 29.25 18ZM29.25 20.25C31.0402 20.25 32.7571 19.5388 34.023 18.273C35.2888 17.0071 36 15.2902 36 13.5C36 11.7098 35.2888 9.9929 34.023 8.72703C32.7571 7.46116 31.0402 6.75 29.25 6.75C27.4598 6.75 25.7429 7.46116 24.477 8.72703C23.2112 9.9929 22.5 11.7098 22.5 13.5C22.5 15.2902 23.2112 17.0071 24.477 18.273C25.7429 19.5388 27.4598 20.25 29.25 20.25Z" fill="#F35D38"/>
<path fill-rule="evenodd" clip-rule="evenodd" d="M9 1.125C9 0.826631 9.11853 0.540483 9.32951 0.329505C9.54049 0.118527 9.82663 0 10.125 0H13.5C13.7984 0 14.0845 0.118527 14.2955 0.329505C14.5065 0.540483 14.625 0.826631 14.625 1.125C14.625 1.42337 14.5065 1.70952 14.2955 1.92049C14.0845 2.13147 13.7984 2.25 13.5 2.25V3.375H22.815L23.6835 0.7695C23.7581 0.545576 23.9012 0.350779 24.0926 0.212681C24.284 0.074583 24.514 0.000179205 24.75 0H27C27.2984 0 27.5845 0.118527 27.7955 0.329505C28.0065 0.540483 28.125 0.826631 28.125 1.125C28.125 1.42337 28.0065 1.70952 27.7955 1.92049C27.5845 2.13147 27.2984 2.25 27 2.25H25.56L24.8602 4.35375L30.204 12.9037C30.3621 13.1568 30.4133 13.4622 30.3462 13.753C30.2791 14.0437 30.0993 14.2959 29.8462 14.454C29.5932 14.6121 29.2878 14.6633 28.997 14.5962C28.7063 14.5291 28.4541 14.3493 28.296 14.0962L23.625 6.62175L18.954 14.0962C18.8529 14.2581 18.7123 14.3915 18.5454 14.484C18.3785 14.5765 18.1908 14.625 18 14.625H6.75C6.54918 14.625 6.35203 14.5712 6.179 14.4693C6.00597 14.3674 5.86338 14.221 5.76603 14.0454C5.66868 13.8697 5.62012 13.6712 5.62539 13.4705C5.63066 13.2697 5.68957 13.074 5.796 12.9037L11.25 4.17825V2.25H10.125C9.82663 2.25 9.54049 2.13147 9.32951 1.92049C9.11853 1.70952 9 1.42337 9 1.125ZM12.375 6.62175L8.7795 12.375H15.9705L12.375 6.62175ZM18 11.3782L21.5955 5.625H14.4045L18 11.3782Z" fill="#F35D38"/>
</svg>
