<svg width="36" height="29" viewBox="0 0 36 29" fill="none" xmlns="http://www.w3.org/2000/svg">
<path d="M35.7141 26.0269L19.5141 0.826875C19.1827 0.311625 18.6124 0 17.9998 0C17.3872 0 16.8169 0.311625 16.4856 0.826875L0.28556 26.0269C0.110738 26.2988 0.0123698 26.6128 0.000789368 26.9358C-0.0107911 27.2589 0.0648434 27.5791 0.219748 27.8629C0.374725 28.1465 0.603222 28.3833 0.881247 28.5482C1.15927 28.713 1.47657 28.8 1.79981 28.8H34.1998C34.8585 28.8 35.4643 28.4406 35.7799 27.8623C35.9348 27.5787 36.0104 27.2585 35.9988 26.9356C35.9872 26.6126 35.8889 26.2987 35.7141 26.0269ZM17.9998 5.12887L22.803 12.6H17.9998L14.3998 16.2L12.2589 14.0591L17.9998 5.12887Z" fill="#F35D38"/>
</svg>
