<svg width="12" height="16" viewBox="0 0 12 16" fill="none" xmlns="http://www.w3.org/2000/svg">
<path d="M11.25 5.75C11.25 5.06056 11.1142 4.37787 10.8504 3.74091C10.5865 3.10395 10.1998 2.5252 9.71231 2.03769C9.2248 1.55018 8.64605 1.16347 8.00909 0.899632C7.37213 0.635795 6.68944 0.5 6 0.5C5.31056 0.5 4.62787 0.635795 3.99091 0.899632C3.35395 1.16347 2.7752 1.55018 2.28769 2.03769C1.80018 2.5252 1.41347 3.10395 1.14963 3.74091C0.885795 4.37787 0.75 5.06056 0.75 5.75C0.75 6.79025 1.0575 7.75775 1.57875 8.57375H1.57275C3.34275 11.345 6 15.5 6 15.5L10.4272 8.57375H10.422C10.9623 7.73103 11.2497 6.75106 11.25 5.75ZM6 8C5.40326 8 4.83097 7.76295 4.40901 7.34099C3.98705 6.91903 3.75 6.34674 3.75 5.75C3.75 5.15326 3.98705 4.58097 4.40901 4.15901C4.83097 3.73705 5.40326 3.5 6 3.5C6.59674 3.5 7.16903 3.73705 7.59099 4.15901C8.01295 4.58097 8.25 5.15326 8.25 5.75C8.25 6.34674 8.01295 6.91903 7.59099 7.34099C7.16903 7.76295 6.59674 8 6 8Z" fill="#FBFCFE"/>
</svg>
