<svg width="36" height="28" viewBox="0 0 36 28" fill="none" xmlns="http://www.w3.org/2000/svg">
<path d="M35.5156 9.99995C33.7006 10.0081 27.0775 10.3849 22.1506 15.1875C20.0806 17.0393 18.8156 19.1437 18 21.1162C17.1844 19.1437 15.9194 17.0393 13.8494 15.1875C8.92252 10.3849 2.2994 10.0081 0.484397 9.99995C0.208772 9.9987 -0.00247804 10.2124 2.19598e-05 10.4887C0.014397 12.2337 0.446272 18.3724 5.54815 22.945C10.7994 28.0587 16 28 18 28C20 28 25.1994 28.0593 30.4519 22.945C35.5544 18.3718 35.9856 12.2337 36 10.4887C36.0025 10.2124 35.7913 9.9987 35.5156 9.99995ZM17.9988 16.9125C18.8 15.7343 19.7238 14.6762 20.7544 13.7549C21.9475 12.5918 23.2281 11.6737 24.5206 10.9312C23.4931 6.52495 21.2881 2.61557 18.475 0.167446C18.2181 -0.0563037 17.7863 -0.0563037 17.5288 0.167446C14.7169 2.6137 12.5119 6.51932 11.4825 10.9218C12.7556 11.6531 14.0138 12.5556 15.1838 13.6962C16.2488 14.6505 17.194 15.7304 17.9988 16.9125Z" fill="#F35D38"/>
</svg>
