<svg width="30" height="33" viewBox="0 0 30 33" fill="none" xmlns="http://www.w3.org/2000/svg">
<path d="M3.3 3.24998C3.3 2.04998 4.35 0.849976 5.7 0.849976C7.05 0.849976 8.1 1.89998 8.1 3.24998C8.1 4.59998 6.9 5.49998 5.7 5.49998C4.5 5.49998 3.3 4.44998 3.3 3.24998ZM30 3.84998L29.25 2.49998L17.25 8.64998L18 9.99998L30 3.84998ZM28.2 28.45L29.55 29.8C28.65 30.7 27.75 31.3 26.7 31.75C25.65 32.2 24.45 32.5 23.25 32.5H0V30.55H4.05L7.2 25.3L3.75 20.5L2.55 8.79998C2.55 7.44998 3.75 6.24998 5.1 6.24998C5.55 6.24998 6 6.39998 6.3 6.54998L11.55 10.45L15 9.24998L16.2 11.65L10.95 13.9C10.8 13.75 8.55 12.1 6.9 10.75L7.5 16L15.45 22.75L18 30.55H23.25C24.15 30.55 25.05 30.4 25.95 29.95C26.85 29.65 27.6 29.05 28.2 28.45ZM7.5 30.55H15L12.6 24.7L9.15 21.85L10.95 25.6L7.5 30.55Z" fill="#F35D38"/>
</svg>
